<?xml version="1.0" encoding="UTF-8" standalone="no"?>
<!DOCTYPE svg PUBLIC "-//W3C//DTD SVG 1.1//EN" "http://www.w3.org/Graphics/SVG/1.1/DTD/svg11.dtd">
<svg width="100%" height="100%" viewBox="0 0 48 48" version="1.1" xmlns="http://www.w3.org/2000/svg" xmlns:xlink="http://www.w3.org/1999/xlink" xml:space="preserve" xmlns:serif="http://www.serif.com/" style="fill-rule:evenodd;clip-rule:evenodd;stroke-linejoin:round;stroke-miterlimit:2;">
    <g transform="matrix(1.75281,0,0,1.75281,-18.0663,-18.0665)">
        <path d="M24.006,16.275C24.418,16.275 24.812,16.444 25.095,16.743L36.873,29.193C37.136,29.471 37.283,29.84 37.283,30.223C37.283,31.047 36.606,31.724 35.782,31.724C35.37,31.724 34.975,31.554 34.692,31.254L24.003,19.953L13.305,31.254C12.739,31.851 11.783,31.878 11.184,31.314C10.584,30.744 10.557,29.793 11.124,29.193L22.914,16.743C23.198,16.443 23.593,16.274 24.006,16.275Z" style="fill:rgb(81,81,81);fill-rule:nonzero;"/>
    </g>
</svg>
