<?xml version="1.0" encoding="UTF-8" standalone="no"?>
<!DOCTYPE svg PUBLIC "-//W3C//DTD SVG 1.1//EN" "http://www.w3.org/Graphics/SVG/1.1/DTD/svg11.dtd">
<svg width="100%" height="100%" viewBox="0 0 137 128" version="1.1" xmlns="http://www.w3.org/2000/svg" xmlns:xlink="http://www.w3.org/1999/xlink" xml:space="preserve" xmlns:serif="http://www.serif.com/" style="fill-rule:evenodd;clip-rule:evenodd;stroke-linejoin:round;stroke-miterlimit:2;">
    <g transform="matrix(0.946046,0,0,0.946046,3.9996,3.32439)">
        <path d="M132.194,70.351L70.561,97.762C69.017,98.478 67.234,98.478 65.691,97.762L4.058,70.521C1.505,69.393 -0.107,66.805 0.006,64.017C-0.002,60.442 2.806,57.439 6.373,57.207C7.217,57.205 8.052,57.379 8.825,57.717L68.109,84.005L127.291,57.683C128.052,57.345 128.875,57.171 129.708,57.173C133.288,57.388 136.116,60.396 136.11,63.983C136.157,66.675 134.603,69.152 132.16,70.283L132.194,70.351Z" style="fill:white;fill-rule:nonzero;"/>
    </g>
    <g transform="matrix(0.946046,0,0,0.946046,3.9996,3.32439)">
        <path d="M132.194,40.624L70.561,68.103C69.017,68.819 67.234,68.819 65.691,68.103L4.058,40.862C1.641,39.682 0.102,37.217 0.102,34.528C0.102,31.839 1.641,29.375 4.058,28.195L65.657,0.953C67.208,0.273 68.975,0.273 70.526,0.953L132.16,28.365C134.576,29.545 136.115,32.009 136.115,34.699C136.115,37.388 134.576,39.852 132.16,41.032L132.194,40.624ZM6.407,86.866C7.24,86.868 8.063,87.042 8.825,87.376L68.109,113.732L127.291,87.41C128.052,87.072 128.875,86.898 129.708,86.9C133.288,87.115 136.116,90.123 136.11,93.71C136.184,96.426 134.626,98.938 132.16,100.078L70.526,127.319C68.975,127.999 67.208,127.999 65.657,127.319L4.024,100.078C1.531,98.958 -0.057,96.442 0.006,93.71C-0.002,90.135 2.806,87.132 6.373,86.9L6.407,86.866Z" style="fill:white;fill-rule:nonzero;"/>
    </g>
</svg>
