<?xml version="1.0" standalone="no"?><!DOCTYPE svg PUBLIC "-//W3C//DTD SVG 1.1//EN" "http://www.w3.org/Graphics/SVG/1.1/DTD/svg11.dtd"><svg t="1587104071689" class="icon" viewBox="0 0 1024 1024" version="1.1" xmlns="http://www.w3.org/2000/svg" p-id="9897" xmlns:xlink="http://www.w3.org/1999/xlink" width="48" height="48"><defs><style type="text/css"></style></defs><path d="M413.498 856.539c71.754-19.887 143.525-39.775 215.288-59.664 34.019-9.429 22.456-57.529-11.606-48.089-71.753 19.893-144.888 41.767-216.646 61.648-34.018 9.424-21.103 55.529 12.964 46.105M405.256 767.546c55.255-14.626 110.503-29.233 165.752-43.845 55.439-14.678 107.52-14.803 102.051-103.652-1.963-31.888 18.828-39.893 42.515-63.46 27.041-26.906 52.036-57.648 67.686-92.575 39.678-88.545 28.457-175.527-14.541-255.546C671.745 27.995 411.33 18.454 284.577 169.513c-108.804 129.678-87.495 338.535 62.925 426.962 32.813 19.302 60.596-19.751 27.935-39.046-116.616-68.902-131.509-186.227-97.172-284.308 51.625-147.47 245.15-199.745 369.892-127.588 113.379 65.602 143.169 244.473 78.354 327.046-49.165 62.626-69.243 55.604-92.324 102.743-13.936 28.474-0.605 77.37-17.007 86.433-16.401 9.067-151.758 40.688-224.125 59.839-36.71 9.715-24.591 55.678 12.201 45.952M606.491 905.392C600.935 935.035 563.635 960 510.773 960c-52.866 0-95.723-24.447-95.723-54.608 0-16.046 187.148-55.835 198.804-50.927 0.815 0.34 3.354 2.49 1.841 10.428-2.27 11.894-7.363 30.678-9.204 40.499" p-id="9898" fill="#ffffff"></path></svg>