<?xml version="1.0" standalone="no"?><!DOCTYPE svg PUBLIC "-//W3C//DTD SVG 1.1//EN" "http://www.w3.org/Graphics/SVG/1.1/DTD/svg11.dtd"><svg t="1587113734734" class="icon" viewBox="0 0 1024 1024" version="1.1" xmlns="http://www.w3.org/2000/svg" p-id="27097" xmlns:xlink="http://www.w3.org/1999/xlink" width="48" height="48"><defs><style type="text/css"></style></defs><path d="M939.6 945.4C961 784.8 875.4 622.9 719.4 555c-188.6-82.2-408.1 4.1-490.2 192.7-28.1 64.6-36.1 132.7-27.4 197.8h737.8z" fill="#C4EDFF" p-id="27098"></path><path d="M736.3 945.4h137c42.4-172.8-44.1-356.2-212.7-429.7-14.4-6.3-29-11.2-43.7-15.6 135.1 100.8 188.8 284 119.4 445.3z" fill="#62BBEF" p-id="27099"></path><path d="M728 536c-17.6-11.8-36.5-22.1-56-31-0.4-0.9-0.6-1.8-1.1-2.6-0.4-0.5-37.8-54.5-56.4-147.9-0.6-2.9-3.9-26.6-4.4-27.1-11.7-84.4-14.9-223.6-14.9-225.1C595 95 589.7 89 582.6 88c-6.9-1-13.9 3.1-16.2 9.9-0.5 1.5-44.1 131.5-92.9 228.5-0.8 0.6-17.5 33.2-23.4 43-36.8 61.4-96 131.2-96.6 131.9-1.1 1.3-1.8 2.8-2.4 4.3-83.9 38.3-154.7 106-194.3 197-34.1 78.4-41.4 163.6-21.1 246.4 1.6 6.7 7.7 11.2 14.3 11.2 1.2 0 2.3-0.1 3.5-0.4 7.9-1.9 12.7-9.9 10.8-17.8-18.7-76.5-11.9-155.2 19.6-227.7C262.7 533.4 474 450.4 654.8 529.2c19.9 8.7 39.1 19.2 56.9 31.1 6.7 4.5 15.9 2.7 20.4-4 4.5-6.7 2.7-15.8-4.1-20.3z m-323.7-50.5c1.7-2.1 3.4-4.4 5.2-6.7 0.5 1.7 1.3 3.3 2.4 4.8-2.6 0.7-5.1 1.2-7.6 1.9z m44.8-9.9c-0.9 0.2-1.9 0.2-2.8 0.4l3-2.3c-0.2 0.6-0.2 1.2-0.2 1.9z m-18.5-24.7c4.3-5.9 8.7-11.9 13-18.1l6.2 3.1-19.2 15z m158-64.8c1 1.3 2.4 2.1 3.7 2.9 2.8 11 5.8 21.4 9 31.2l-39.6-34 16.7-13 10.2 12.9z m-8-57l-15-18.7 11.5-9.6c1.1 9.9 2.3 19.3 3.5 28.3z m-12.1-149.6c0.7 15.6 1.7 32.5 2.8 49.9l-15.9-15.9c4.6-11.9 9.1-23.4 13.1-34z m-25.1 63.6l25.9 25.9-22.1 18.4-14.2-17.7c-0.2-0.2-0.5-0.3-0.7-0.6 3.9-8.7 7.6-17.4 11.1-26z m-4.6 123.6l-20.1-17.2 24.3-20.3 16.9 21.1-21.1 16.4z m17.2 53.5c-8.4-4.5-17.6-7.3-27.5-8.2l9.4-7.3 18.1 15.5z m-36.9-120.9l5.5 6.9-14.4 12c3.1-6.2 6-12.5 8.9-18.9z m-58.7 109c4.7-7.2 9.3-14.4 13.7-21.6l21.7-18.1 19.3 16.6-39.5 30.8-15.2-7.7z m19.4 63.2c5.7-17.8 22.2-30.8 41.8-30.8 20.6 0 37.8 14.2 42.6 33.3-28.2-3.9-56.5-4.9-84.4-2.5z m114.8 7.6c-1.1-14.2-6.1-27.2-14.1-38l29.6 25.4c2.8 2.4 6.2 3.5 9.6 3.5 0.2 0 0.4-0.1 0.6-0.1 3 6.7 5.9 12.8 8.7 18.2-11.5-3.5-22.9-6.5-34.4-9zM850.7 669.9c-3.9-7.1-12.8-9.7-20-5.8-7.1 3.9-9.7 12.9-5.8 20 43.6 79.1 55.9 170.7 34.5 257.9-1.9 7.9 2.9 15.9 10.8 17.8 1.2 0.3 2.4 0.4 3.5 0.4 6.6 0 12.6-4.5 14.3-11.2 23.2-94.4 9.9-193.5-37.3-279.1zM796.1 587.1c-7.5-7.8-19.9-8.1-27.7-0.6-7.8 7.5-8.1 19.9-0.7 27.7l4.5 4.9c3.9 4.2 9.2 6.4 14.5 6.4 4.7 0 9.5-1.7 13.2-5.1 8-7.3 8.6-19.7 1.3-27.7l-5.1-5.6zM433.4 793.5c-24.3 0-44.1 19.8-44.1 44.1s19.8 44.1 44.1 44.1 44.1-19.8 44.1-44.1-19.8-44.1-44.1-44.1z m0 58.8c-8.1 0-14.7-6.6-14.7-14.7s6.6-14.7 14.7-14.7 14.7 6.6 14.7 14.7-6.6 14.7-14.7 14.7z" fill="#14428D" p-id="27100"></path><path d="M325.6 710.2m-19.6 0a19.6 19.6 0 1 0 39.2 0 19.6 19.6 0 1 0-39.2 0Z" fill="#14428D" p-id="27101"></path><path d="M580.4 710.2m-19.6 0a19.6 19.6 0 1 0 39.2 0 19.6 19.6 0 1 0-39.2 0Z" fill="#14428D" p-id="27102"></path><path d="M364.9 178c2.4-7.8-2-16-9.8-18.3-36.8-11.1-73.5-9-106.3 6.2-34 15.7-60.9 39-77.8 67.3-4.2 7-1.9 16 5.1 20.1 2.4 1.4 5 2.1 7.5 2.1 5 0 9.9-2.6 12.7-7.2 13.8-23.2 36.3-42.5 64.9-55.7 26.2-12.1 55.7-13.8 85.4-4.8 7.9 2.5 15.9-1.9 18.3-9.7z" fill="#14428D" p-id="27103"></path><path d="M233.3 104.8c55.5-18.2 115.3-14.7 168.3 9.9 7.4 3.4 16.1 0.2 19.5-7.2 3.4-7.4 0.2-16.1-7.2-19.5C354.1 60.3 286.6 56.3 224 76.8c-62.5 20.4-114.5 63.3-146.4 120.8-3.9 7.1-1.4 16.1 5.7 20 2.3 1.3 4.7 1.8 7.1 1.8 5.2 0 10.2-2.7 12.9-7.6 28.4-50.8 74.5-88.9 130-107zM252.1 288.7c0 24.3 19.8 44.1 44.1 44.1s44.1-19.8 44.1-44.1-19.8-44.1-44.1-44.1-44.1 19.8-44.1 44.1z m58.8 0c0 8.1-6.6 14.7-14.7 14.7s-14.7-6.6-14.7-14.7 6.6-14.7 14.7-14.7 14.7 6.6 14.7 14.7z" fill="#14428D" p-id="27104"></path></svg>